<svg width="2048" height="1152" viewBox="0 0 2048 1152" fill="none" xmlns="http://www.w3.org/2000/svg">
<g clip-path="url(#clip0_102_6)">
<rect width="2048" height="1152" fill="#1F2937"/>
<path d="M-286.778 1076.33C-140.797 1146.85 -11.0205 1185.71 106.07 1198.67C242.219 1213.74 360.124 1193.66 465.058 1149.04C480.245 1190.56 491.839 1233.68 500.003 1277.39C419.957 1384.61 292.081 1454.03 147.989 1454.03C-73.6633 1454.03 -256.951 1289.77 -286.778 1076.33ZM581.136 1086.96C574.172 1129.2 561.179 1169.4 543.07 1206.67C535.848 1178.83 527.236 1151.31 517.177 1124.36C539.048 1112.93 560.35 1100.43 581.136 1086.96ZM255.537 864.08C308.322 900.944 352.31 946.865 388.22 998.81C409.283 1029.28 427.582 1061.85 443.219 1095.91C346.561 1137.14 238.265 1155.51 112.389 1141.58C-4.49051 1128.64 -137.438 1087.75 -290.999 1010.17C-290.942 1004.93 -290.794 999.709 -290.555 994.511C-116.239 954.258 75.1095 907.653 255.537 864.08ZM525.822 791.331C564.404 856.361 586.675 932.205 586.998 1013.23C578.689 1019.28 570.303 1025.16 561.833 1030.87C540.153 1045.48 517.917 1058.93 495.038 1071.1C478.162 1034.46 458.358 999.253 435.47 966.145C404.962 922.014 368.999 881.682 327.315 846.773C377.276 834.751 426.07 823.071 473.066 811.944L473.282 811.894L473.496 811.839L474.967 811.459C489.905 807.516 507.061 800.552 525.822 791.331ZM-225.423 784.039C-117.937 764.379 -24.3332 765.025 56.4893 780.867C102.735 789.932 145.068 804.025 183.679 822.348C27.4826 860.114 -133.997 899.245 -283.554 933.939C-273.45 879.825 -253.419 829.204 -225.423 784.039ZM147.989 576C287.903 576 412.53 641.453 492.922 743.408C479.764 749.549 468.597 753.807 459.569 756.109C397.656 770.768 332.801 786.343 266.391 802.364C208.996 766.212 142.877 739.267 67.5381 724.499C-5.32149 710.217 -86.2411 707.43 -175.614 718.339C-95.3612 630.849 19.9087 576 147.989 576Z" fill="#010001" fill-opacity="0.06"/>
</g>
<defs>
<clipPath id="clip0_102_6">
<rect width="2048" height="1152" fill="white"/>
</clipPath>
</defs>
</svg>