<svg width="2048" height="1152" viewBox="0 0 2048 1152" fill="none" xmlns="http://www.w3.org/2000/svg">
<g clip-path="url(#clip0_84_2)">
<rect width="2048" height="1152" fill="#FF0099"/>
<path fill-rule="evenodd" clip-rule="evenodd" d="M492.925 743.411C412.533 641.453 287.905 576 147.989 576C19.9091 576 -95.3602 630.847 -175.613 718.336C-86.2402 707.428 -5.32062 710.217 67.5387 724.499C142.878 739.266 208.999 766.211 266.393 802.363C332.816 786.339 397.682 770.763 459.605 756.102C468.627 753.798 479.783 749.544 492.925 743.411ZM-283.555 933.942C-273.452 879.826 -253.421 829.204 -225.424 784.038C-117.938 764.377 -24.3332 765.024 56.4894 780.867C102.735 789.932 145.069 804.023 183.68 822.345C175.177 824.401 166.659 826.461 158.127 828.524C9.93719 864.36 -142.139 901.135 -283.555 933.942ZM-291 1010.18C-290.943 1004.94 -290.795 999.714 -290.556 994.517C-142.467 960.32 17.9141 921.535 173.45 883.921L173.451 883.921C200.997 877.26 228.391 870.635 255.537 864.079C308.322 900.943 352.31 946.864 388.22 998.809C409.284 1029.28 427.585 1061.86 443.221 1095.91C346.563 1137.14 238.266 1155.51 112.389 1141.57C-4.48999 1128.64 -137.439 1087.75 -291 1010.18ZM-286.778 1076.34C-256.948 1289.77 -73.6623 1454.03 147.989 1454.03C292.081 1454.03 419.959 1384.61 500.005 1277.39C491.841 1233.68 480.247 1190.56 465.06 1149.04C360.127 1193.66 242.221 1213.73 106.071 1198.67C-11.0194 1185.71 -140.797 1146.86 -286.778 1076.34ZM543.073 1206.67C561.181 1169.41 574.174 1129.2 581.137 1086.96C560.352 1100.43 539.051 1112.93 517.18 1124.36C527.239 1151.32 535.851 1178.83 543.073 1206.67ZM525.825 791.332C564.406 856.362 586.677 932.206 587 1013.23C578.691 1019.28 570.304 1025.16 561.834 1030.87C540.153 1045.48 517.918 1058.93 495.039 1071.1C478.163 1034.46 458.359 999.254 435.47 966.145C404.962 922.014 369.002 881.68 327.318 846.772C377.278 834.75 426.071 823.07 473.067 811.944L473.282 811.893L473.497 811.839C488.776 807.971 506.445 800.857 525.825 791.332Z" fill="#010001" fill-opacity="0.06"/>
</g>
<defs>
<clipPath id="clip0_84_2">
<rect width="2048" height="1152" fill="white"/>
</clipPath>
</defs>
</svg>