<?xml version="1.0" encoding="UTF-8"?>
<svg version="1.1" xmlns="http://www.w3.org/2000/svg" width="1320" height="742">
<path d="M0 0 C435.6 0 871.2 0 1320 0 C1320 244.86 1320 489.72 1320 742 C884.4 742 448.8 742 0 742 C0 497.14 0 252.28 0 0 Z " fill="#E83296" transform="translate(0,0)"/>
<path d="M0 0 C0.89444824 0.39977051 1.78889648 0.79954102 2.71044922 1.21142578 C45.89370217 20.71628757 86.14892543 51.17109861 115 89 C106.42575588 99.19840235 85.1494132 101.16016645 72.96484375 104.02734375 C70.63653264 104.58395625 68.30845788 105.14155823 65.98060608 105.7000885 C59.87410885 107.16236065 53.76443683 108.61090713 47.6539917 110.05657959 C40.32859914 111.79291814 33.00756194 113.54752904 25.68573284 115.2988205 C19.80937124 116.70294597 13.93147878 118.09986233 8.04951477 119.48034668 C-1.57169322 121.74007228 -11.17897461 124.01146876 -20.73168945 126.546875 C-22.13287542 126.90948959 -23.53430716 127.2711562 -24.9360199 127.63172913 C-27.35165587 128.25964282 -29.76061218 128.91434297 -32.15907288 129.60496521 C-40.14902358 131.64512089 -45.01259248 130.29651606 -52.0625 126.125 C-54.96508789 124.28369141 -54.96508789 124.28369141 -57.09765625 122.6015625 C-61.83997831 119.04552764 -66.73705718 116.21226551 -72 113.5 C-73.27605103 112.83339355 -73.27605103 112.83339355 -74.57788086 112.15332031 C-118.54238211 89.6413041 -167.68349596 77.22845497 -216.5625 71.75 C-217.67135559 71.62510193 -217.67135559 71.62510193 -218.8026123 71.49768066 C-239.59948427 69.19052587 -260.20638136 68.86703561 -281.125 68.9375 C-283.74088456 68.94252743 -286.35677005 68.94708813 -288.97265625 68.95117188 C-295.31512505 68.96207347 -301.65755799 68.9787121 -308 69 C-308.17385876 64.69518065 -308.30043227 60.392251 -308.38452148 56.08496094 C-308.41959166 54.62203355 -308.4672653 53.15934924 -308.52807617 51.69726562 C-309.01408758 39.70626154 -309.01408758 39.70626154 -306.75561523 35.90625 C-304.93661333 34.29763419 -303.12059552 33.18075605 -301 32 C-299.44664993 30.90836579 -297.89876584 29.80892598 -296.35546875 28.703125 C-294.63769916 27.54480332 -292.91480726 26.39405031 -291.1875 25.25 C-289.79990479 24.33093872 -289.79990479 24.33093872 -288.38427734 23.39331055 C-279.82487554 17.7875258 -271.09889732 12.67584786 -262 8 C-261.13713379 7.5555957 -260.27426758 7.11119141 -259.38525391 6.65332031 C-224.82490064 -10.94395202 -186.72117271 -21.99584659 -148 -25 C-147.27345215 -25.06171387 -146.5469043 -25.12342773 -145.79833984 -25.18701172 C-96.15545102 -29.23883443 -45.39684846 -20.33007526 0 0 Z " fill="#DC2F8E" transform="translate(308,352)"/>
<path d="M0 0 C1.1420137 -0.00946152 2.2840274 -0.01892303 3.46064758 -0.02867126 C4.69784042 -0.03306717 5.93503326 -0.03746307 7.2097168 -0.04199219 C8.49690109 -0.0490065 9.78408539 -0.05602081 11.11027527 -0.06324768 C15.29316612 -0.08288991 19.47600336 -0.08768583 23.65893555 -0.08886719 C24.36764801 -0.08930904 25.07636047 -0.0897509 25.80654907 -0.09020615 C46.46441321 -0.09698924 66.86441619 0.09316995 87.34643555 3.16113281 C89.17247314 3.41854248 89.17247314 3.41854248 91.03540039 3.68115234 C128.31256322 9.00918213 164.18418361 19.29899434 198.34643555 35.16113281 C198.34643555 35.82113281 198.34643555 36.48113281 198.34643555 37.16113281 C161.45808881 46.53788541 124.48516996 55.54364454 87.47143555 64.41113281 C86.4205928 64.66290283 85.36975006 64.91467285 84.2870636 65.17407227 C74.04341044 67.62800603 63.79910372 70.0791883 53.55374908 72.52600861 C52.56011101 72.76331444 51.56647293 73.00062027 50.54272461 73.24511719 C49.5516848 73.48179863 48.56064499 73.71848007 47.53957367 73.96233368 C41.16790195 75.48479016 34.79763165 77.01298894 28.42824745 78.54498672 C24.11833117 79.58153315 19.80803161 80.61648057 15.49770737 81.65132904 C13.44589096 82.14442662 11.39426522 82.63831835 9.34283829 83.13303375 C6.52143867 83.81336414 3.69939769 84.49096937 0.87719727 85.16796875 C0.03743725 85.37124031 -0.80232277 85.57451187 -1.66753006 85.78394318 C-7.42580807 87.16113281 -7.42580807 87.16113281 -9.65356445 87.16113281 C-9.65356445 58.78113281 -9.65356445 30.40113281 -9.65356445 1.16113281 C-6.14843127 0.28484952 -3.56450066 0.02436184 0 0 Z " fill="#DC2F8E" transform="translate(9.653564453125,459.8388671875)"/>
<path d="M0 0 C3.95613281 1.25103516 3.95613281 1.25103516 7.9921875 2.52734375 C30.52203091 9.61642283 53.09935221 16.21675505 76 22 C76 22.33 76 22.66 76 23 C50.92 23 25.84 23 0 23 C0 15.41 0 7.82 0 0 Z " fill="#DC2F8E" transform="translate(0,719)"/>
<path d="M0 0 C3.58472483 0.59517378 6.85235584 1.63733299 10.26611328 2.86694336 C16.93662206 5.20564377 23.03825031 6.46784511 30.125 6.4375 C30.82270508 6.43500244 31.52041016 6.43250488 32.23925781 6.42993164 C36.51029314 6.30543726 39.99640279 5.41203358 44 4 C45.32 4 46.64 4 48 4 C49.44873208 11.12293275 49.44873208 11.12293275 47.625 14.6875 C40.75811137 20.73690189 33.57789225 23.40270523 24.46875 23.28125 C17.26937302 22.46106781 11.00639959 19.12282749 6 14 C2.61499562 9.55718176 0.42635482 5.68473095 0 0 Z " fill="#FEFAFC" transform="translate(1009,47)"/>
<path d="M0 0 C18.80487805 0 18.80487805 0 23.8125 4.5625 C26.34220955 7.847107 26.72378409 10.72787324 26.49609375 14.8125 C25.63728553 18.59937091 23.82558616 20.37154776 21 23 C16.09931037 24.63356321 11.14261524 24.05529694 6 24 C6 27.96 6 31.92 6 36 C4.02 36 2.04 36 0 36 C0 24.12 0 12.24 0 0 Z " fill="#FEF9FC" transform="translate(1078,26)"/>
<path d="M0 0 C2.203125 1.890625 2.203125 1.890625 4.25 4.25 C4.93578125 5.01828125 5.6215625 5.7865625 6.328125 6.578125 C8.09105083 9.13189607 8.6319291 10.94717666 9 14 C-7.65366432 18.63325409 -21.81619874 15.85686833 -37 8 C-36.67 7.34 -36.34 6.68 -36 6 C-33.79177245 5.32102057 -31.54874819 4.75437147 -29.296875 4.23828125 C-28.62207092 4.08336716 -27.94726685 3.92845306 -27.25201416 3.7688446 C-25.82049399 3.44283165 -24.38797929 3.12116029 -22.95458984 2.8034668 C-20.76974687 2.31689767 -18.59008146 1.81082426 -16.41015625 1.30273438 C-15.01849906 0.9883861 -13.62657926 0.67519773 -12.234375 0.36328125 C-10.96819336 0.07751221 -9.70201172 -0.20825684 -8.39746094 -0.50268555 C-5.14475533 -0.97881096 -3.1043263 -0.99905765 0 0 Z " fill="#FEF9FC" transform="translate(1045,34)"/>
<path d="M0 0 C3.63467079 1.62400184 4.77408696 2.66113044 7 6 C7.22705078 8.36010742 7.22705078 8.36010742 7.1953125 11.10546875 C7.18886719 12.08837891 7.18242188 13.07128906 7.17578125 14.08398438 C7.15902344 15.10814453 7.14226562 16.13230469 7.125 17.1875 C7.11597656 18.22326172 7.10695313 19.25902344 7.09765625 20.32617188 C7.0740786 22.88434685 7.0411703 25.44205748 7 28 C5.02 28 3.04 28 1 28 C0.67 27.01 0.34 26.02 0 25 C-0.515625 25.495 -1.03125 25.99 -1.5625 26.5 C-4.87832303 28.54050648 -7.16691031 28.34224015 -11 28 C-13.67680011 27.13184861 -14.6569562 26.4974135 -16.25 24.1875 C-17.19456357 21.43252292 -17.5639547 19.89026784 -17 17 C-13.36004214 12.67140147 -10.74092453 11.70199115 -5.125 11.1875 C-3.41760021 11.10326828 -1.70914889 11.03345309 0 11 C-0.33 9.35 -0.66 7.7 -1 6 C-4.41656024 5.83322718 -4.41656024 5.83322718 -8 6 C-8.66 6.66 -9.32 7.32 -10 8 C-13.125 8.125 -13.125 8.125 -16 8 C-13.03386991 0.44985067 -7.47645595 -1.13978639 0 0 Z " fill="#FCF1F8" transform="translate(1138,35)"/>
<path d="M0 0 C4.89434784 2.40100083 7.15529383 4.8758162 9 10 C9 11.98 9 13.96 9 16 C2.73 16 -3.54 16 -10 16 C-8.54711014 20.5841963 -8.54711014 20.5841963 -7 22 C-3.54178598 22.25003964 -3.54178598 22.25003964 0 22 C0.66 21.34 1.32 20.68 2 20 C5.125 19.875 5.125 19.875 8 20 C7.07349738 23.42805969 6.33885367 24.76602961 3.375 26.8125 C-0.61830226 28.21755079 -3.81943916 28.75783075 -8 28 C-12.03919485 25.90560267 -14.37240979 24.24362562 -16 20 C-16.30078125 17.16015625 -16.30078125 17.16015625 -16.3125 14.0625 C-16.32925781 13.04285156 -16.34601563 12.02320313 -16.36328125 10.97265625 C-15.82950449 6.60487007 -14.17438513 3.97306196 -10.8125 1.1875 C-7.137097 -0.36433682 -3.89255849 -0.67928962 0 0 Z " fill="#FCF1F8" transform="translate(1197,35)"/>
<path d="M0 0 C2.96912882 1.38980498 4.69657028 2.69657028 7 5 C7.22705078 7.24658203 7.22705078 7.24658203 7.1953125 10.0078125 C7.18886719 10.99394531 7.18242188 11.98007812 7.17578125 12.99609375 C7.15902344 14.02863281 7.14226562 15.06117187 7.125 16.125 C7.11597656 17.16527344 7.10695313 18.20554687 7.09765625 19.27734375 C7.07403747 21.85179092 7.04110149 24.42578212 7 27 C5.02 27 3.04 27 1 27 C0.67 26.34 0.34 25.68 0 25 C-0.33 25.495 -0.66 25.99 -1 26.5 C-3.58815214 28.44111411 -5.80588634 28.54536829 -8.9921875 28.41015625 C-12.5738114 27.67850156 -13.99666503 25.94239824 -16 23 C-16.625 19.4375 -16.625 19.4375 -16 16 C-12.07445711 10.99154872 -5.94496704 10.79127407 0 10 C-0.33 8.68 -0.66 7.36 -1 6 C-3.91652174 5.83318891 -3.91652174 5.83318891 -7 6 C-7.66 6.66 -8.32 7.32 -9 8 C-12.125 8.125 -12.125 8.125 -15 8 C-14.69025617 5.10905762 -13.95829554 3.95308249 -12 1.75 C-7.92513008 -0.62700745 -4.61588032 -0.71206865 0 0 Z " fill="#FDF6FB" transform="translate(1245,35)"/>
<path d="M0 0 C2.31 0 4.62 0 7 0 C7.8427743 2.39287704 8.67437002 4.78871019 9.5 7.1875 C9.73847656 7.86103516 9.97695312 8.53457031 10.22265625 9.22851562 C11.48727592 12.93204467 12.30451221 16.07940536 12 20 C12.66 20 13.32 20 14 20 C14.09796875 19.39414062 14.1959375 18.78828125 14.296875 18.1640625 C15.4462833 11.72341254 17.37659667 5.98543478 20 0 C21.98 0 23.96 0 26 0 C24.0323119 7.61563018 21.72863093 15.03835187 19.0625 22.4375 C18.56073242 23.88672852 18.56073242 23.88672852 18.04882812 25.36523438 C17.54706055 26.76032227 17.54706055 26.76032227 17.03515625 28.18359375 C16.7400415 29.01431396 16.44492676 29.84503418 16.14086914 30.70092773 C14.48721315 34.03336482 12.33398348 36.33300826 9 38 C7.00039988 38.039992 4.99952758 38.04346799 3 38 C2 35 2 35 3 32 C6.0625 30.8125 6.0625 30.8125 9 30 C8.34712724 23.90652094 6.08268295 18.44084803 3.9375 12.75 C3.19375993 10.76669315 2.45273144 8.78236665 1.71484375 6.796875 C1.38605225 5.92385742 1.05726074 5.05083984 0.71850586 4.15136719 C0 2 0 2 0 0 Z " fill="#FDF1F9" transform="translate(1277,35)"/>
<path d="M0 0 C1.98 0 3.96 0 6 0 C6.33 1.32 6.66 2.64 7 4 C7.515625 3.34 8.03125 2.68 8.5625 2 C11 0 11 0 14.4375 -0.5 C18.51937671 0.07289498 20.11783728 1.11783728 23 4 C24.2263757 6.45275141 24.11415314 8.0505781 24.09765625 10.7890625 C24.09443359 11.73007812 24.09121094 12.67109375 24.08789062 13.640625 C24.07951172 14.62546875 24.07113281 15.6103125 24.0625 16.625 C24.05798828 17.61757813 24.05347656 18.61015625 24.04882812 19.6328125 C24.03702145 22.0886016 24.020554 24.54427104 24 27 C22.02 27 20.04 27 18 27 C17.96261719 25.73542969 17.92523437 24.47085938 17.88671875 23.16796875 C17.82106167 21.5077827 17.75461424 19.84762778 17.6875 18.1875 C17.66494141 17.35412109 17.64238281 16.52074219 17.61914062 15.66210938 C17.5659668 14.45844727 17.5659668 14.45844727 17.51171875 13.23046875 C17.48553467 12.49207764 17.45935059 11.75368652 17.43237305 10.99291992 C16.88690763 8.47872783 16.0449496 7.52858835 14 6 C10.68181015 6.24205349 10.68181015 6.24205349 8 8 C7.84344973 9.48638992 7.74933057 10.97949127 7.68359375 12.47265625 C7.64169922 13.37177734 7.59980469 14.27089844 7.55664062 15.19726562 C7.49766602 16.61555664 7.49766602 16.61555664 7.4375 18.0625 C7.37272461 19.4865918 7.37272461 19.4865918 7.30664062 20.93945312 C7.20020724 23.29281353 7.09818992 25.64628354 7 28 C4.69 28 2.38 28 0 28 C0 18.76 0 9.52 0 0 Z " fill="#FDF3F9" transform="translate(1151,35)"/>
<path d="M0 0 C2.2557675 1.53131909 4.03704473 3.09009757 6 5 C5.67 5.99 5.34 6.98 5 8 C-2.22134752 11.03730496 -8.88014293 9.62529767 -16.125 7.5 C-22.36003782 5.72227712 -28.54557362 5.29758087 -35 5 C-32.4841633 2.3153152 -30.2663262 0.38391121 -26.9375 -1.1875 C-26.26589844 -1.51105469 -25.59429688 -1.83460937 -24.90234375 -2.16796875 C-16.29524436 -5.93247013 -8.21624668 -3.96865001 0 0 Z " fill="#FDF6FB" transform="translate(1051,18)"/>
<path d="M0 0 C1.98 0 3.96 0 6 0 C6 1.98 6 3.96 6 6 C7.98 6 9.96 6 12 6 C12 7.65 12 9.3 12 11 C10.02 11 8.04 11 6 11 C6.0330077 13.60760846 6.1001148 16.20662846 6.1875 18.8125 C6.19330078 19.55048828 6.19910156 20.28847656 6.20507812 21.04882812 C6.25316515 23.49564662 6.25316515 23.49564662 7 27 C9.39430739 29.08170143 9.39430739 29.08170143 12 30 C11.67 31.32 11.34 32.64 11 34 C7.75 34.3125 7.75 34.3125 4 34 C1.55277039 31.86298259 0.17580826 30.16983252 -0.31542969 26.90112305 C-0.39353323 24.48422411 -0.34915691 22.1034962 -0.25 19.6875 C-0.23195313 18.85154297 -0.21390625 18.01558594 -0.1953125 17.15429688 C-0.14841126 15.10236772 -0.07667411 13.05103244 0 11 C-1.32 11 -2.64 11 -4 11 C-4 9.35 -4 7.7 -4 6 C-2.68 6 -1.36 6 0 6 C0 4.02 0 2.04 0 0 Z " fill="#FDF7FB" transform="translate(1213,29)"/>
<path d="M0 0 C1.98 0 3.96 0 6 0 C6 11.88 6 23.76 6 36 C4.02 36 2.04 36 0 36 C0 24.12 0 12.24 0 0 Z " fill="#FEFDFE" transform="translate(1110,26)"/>
<path d="M0 0 C0 1.98 0 3.96 0 6 C-2.64 6.33 -5.28 6.66 -8 7 C-8.33 13.6 -8.66 20.2 -9 27 C-10.98 27 -12.96 27 -15 27 C-15 18.42 -15 9.84 -15 1 C-13.35 1 -11.7 1 -10 1 C-10 2.32 -10 3.64 -10 5 C-9.34 5 -8.68 5 -8 5 C-7.814375 4.0409375 -7.814375 4.0409375 -7.625 3.0625 C-7.41875 2.381875 -7.2125 1.70125 -7 1 C-4.53721199 -0.231394 -2.7204945 -0.07159196 0 0 Z " fill="#FEFBFD" transform="translate(1274,35)"/>
<path d="M0 0 C3.20825562 -0.05849554 6.41637233 -0.09376162 9.625 -0.125 C10.52863281 -0.14175781 11.43226563 -0.15851562 12.36328125 -0.17578125 C17.32750152 -0.21201643 21.34411907 0.03555854 26 2 C25.67 2.66 25.34 3.32 25 4 C22.53149414 4.77783203 22.53149414 4.77783203 19.28515625 5.5078125 C18.12435547 5.77207031 16.96355469 6.03632812 15.76757812 6.30859375 C14.54490234 6.57800781 13.32222656 6.84742188 12.0625 7.125 C10.84369141 7.40214844 9.62488281 7.67929687 8.36914062 7.96484375 C-0.6687577 10 -0.6687577 10 -3 10 C-1.125 2.25 -1.125 2.25 0 0 Z " fill="#FDF2F9" transform="translate(1012,27)"/>
<path d="M0 0 C9.625 -0.25 9.625 -0.25 13 2 C13.66930099 9.02766044 13.66930099 9.02766044 11.80078125 11.7421875 C9.36854556 13.44105928 7.74858923 13.30189309 4.8125 13.1875 C3.224375 13.125625 1.63625 13.06375 0 13 C0 8.71 0 4.42 0 0 Z " fill="#EA3A9C" transform="translate(1084,32)"/>
<path d="M0 0 C1.95771371 3.76005332 3 7.70945738 3 11.9375 C1.61761929 14.78866022 -0.10493511 14.96538546 -3 16 C-4.48112446 14.04312041 -5.95996347 12.08458563 -7.4375 10.125 C-7.85837891 9.56941406 -8.27925781 9.01382813 -8.71289062 8.44140625 C-11.88671875 4.2265625 -11.88671875 4.2265625 -13 2 C-11.39935157 1.46845258 -9.79431126 0.95011647 -8.1875 0.4375 C-7.29417969 0.14746094 -6.40085937 -0.14257812 -5.48046875 -0.44140625 C-3 -1 -3 -1 0 0 Z " fill="#FDF6FB" transform="translate(1061,29)"/>
<path d="M0 0 C0.21917317 2.70313576 0.32851983 4.43958382 -1.0625 6.8125 C-3.99268751 8.60842137 -6.6472953 8.18977574 -10 8 C-10.625 5.625 -10.625 5.625 -11 3 C-7.88866897 -0.11133103 -4.26881718 0 0 0 Z " fill="#EA3A9C" transform="translate(1246,50)"/>
<path d="M0 0 C0.125 2.875 0.125 2.875 0 6 C-2 8 -2 8 -5.5625 8.1875 C-9 8 -9 8 -10 7 C-10.04063832 5.33382885 -10.042721 3.66611905 -10 2 C-6.38026598 0.68373308 -3.90432869 0 0 0 Z " fill="#EA3A9C" transform="translate(1138,50)"/>
<path d="M0 0 C3.0625 0.3125 3.0625 0.3125 4.9375 1.625 C6.0625 3.3125 6.0625 3.3125 6.0625 6.3125 C2.1025 6.3125 -1.8575 6.3125 -5.9375 6.3125 C-4.47848361 0.47643443 -4.47848361 0.47643443 0 0 Z " fill="#EA399B" transform="translate(1192.9375,39.6875)"/>
</svg>
