<?xml version="1.0" encoding="UTF-8"?>
<svg version="1.1" xmlns="http://www.w3.org/2000/svg" width="1150" height="638">
<path d="M0 0 C379.5 0 759 0 1150 0 C1150 210.54 1150 421.08 1150 638 C770.5 638 391 638 0 638 C0 427.46 0 216.92 0 0 Z " fill="#111111" transform="translate(0,0)"/>
<path d="M0 0 C0.63123779 0.47042725 1.26247559 0.94085449 1.9128418 1.42553711 C2.58484619 1.93995361 3.25685059 2.45437012 3.94921875 2.984375 C4.65925049 3.52521729 5.36928223 4.06605957 6.10083008 4.62329102 C17.62352957 13.49133241 28.19245659 23.1161295 38.51171875 33.359375 C39.37949951 34.21781006 40.24728027 35.07624512 41.14135742 35.96069336 C47.06075526 41.90956067 52.42110866 48.16422853 57.63671875 54.734375 C58.57845497 55.8914169 59.52099624 57.04780472 60.46484375 58.203125 C76.397868 78.14510374 89.62250173 99.74368517 101.38671875 122.359375 C101.85886307 123.26465942 101.85886307 123.26465942 102.34054565 124.18823242 C107.63671875 134.37509498 107.63671875 134.37509498 107.63671875 136.734375 C12.72661335 174.61360436 -88.27296338 174.12651419 -213.06640625 136.46875 C-213.74234833 136.25230331 -214.41829041 136.03585663 -215.11471558 135.81285095 C-220.92684812 133.92784098 -226.60893668 131.82686393 -232.36328125 129.734375 C-232.36328125 103.994375 -232.36328125 78.254375 -232.36328125 51.734375 C-226.40767925 49.74917433 -220.64816556 47.96308471 -214.57202148 46.52734375 C-213.73398609 46.32589815 -212.8959507 46.12445255 -212.03252029 45.91690254 C-209.24651507 45.24817412 -206.45920191 44.58507097 -203.671875 43.921875 C-201.65769182 43.43940806 -199.64360023 42.95655864 -197.6295929 42.47335815 C-192.16193545 41.16256216 -186.69315404 39.85651608 -181.22410583 38.55153656 C-171.90419737 36.32683634 -162.5859796 34.09505461 -153.26755905 31.86413193 C-150.82656536 31.27981447 -148.3855274 30.69568193 -145.94444656 30.11172867 C-128.49380568 25.93683892 -111.05248841 21.72512244 -93.61865836 17.48071504 C-85.21391703 15.4345865 -76.80778662 13.39417693 -68.401721 11.35349655 C-62.13445888 9.83145285 -55.86809685 8.30586796 -49.60348511 6.77294922 C-43.70142694 5.32879115 -37.79736428 3.89314029 -31.89168358 2.463871 C-29.71426914 1.93518244 -27.537646 1.40322301 -25.36187172 0.86782455 C-22.39265342 0.13757833 -19.42090457 -0.58128827 -16.44824219 -1.29736328 C-15.57849982 -1.51420776 -14.70875746 -1.73105225 -13.81265926 -1.95446777 C-12.61662248 -2.23890244 -12.61662248 -2.23890244 -11.39642334 -2.52908325 C-10.70926113 -2.69664186 -10.02209892 -2.86420048 -9.31411362 -3.03683662 C-5.53959892 -3.47950156 -2.96151484 -2.21758231 0 0 Z " fill="#1E1E1E" transform="translate(232.36328125,465.265625)"/>
<path d="M0 0 C1.38138657 0.00273422 1.38138657 0.00273422 2.79067993 0.00552368 C17.18655229 0.05338572 31.25679423 0.64118468 45.4375 3.3125 C46.39027832 3.48942383 47.34305664 3.66634766 48.32470703 3.84863281 C104.96891222 14.6673677 162.66465808 43.7361847 199.4375 89.3125 C200.17097656 90.16972656 200.90445312 91.02695312 201.66015625 91.91015625 C202.41167969 92.80605469 203.16320312 93.70195312 203.9375 94.625 C204.6284375 95.44613281 205.319375 96.26726562 206.03125 97.11328125 C206.4953125 97.83902344 206.959375 98.56476563 207.4375 99.3125 C206.4375 102.3125 206.4375 102.3125 203.67604065 103.70881653 C202.41084058 104.19850614 201.13856539 104.67011739 199.86157227 105.12817383 C199.15537782 105.38600804 198.44918337 105.64384226 197.72158909 105.90948963 C187.58386 109.47141204 177.09716371 111.79730084 166.65234375 114.26171875 C164.37924545 114.80564895 162.10634557 115.3504089 159.83363342 115.89595032 C155.09749141 117.03066057 150.3598534 118.15879671 145.62084961 119.28149414 C139.58514498 120.71143452 133.55221113 122.15265749 127.52022457 123.59819317 C121.71101107 124.98986643 115.90049335 126.37605605 110.08984375 127.76171875 C109.00247358 128.02145666 107.91510342 128.28119457 106.79478264 128.54880333 C100.01554272 130.16575726 93.23023645 131.75327725 86.4375 133.3125 C85.65018871 133.49658543 84.86287743 133.68067085 84.05170822 133.87033463 C81.96373958 134.35457374 79.87259219 134.81940296 77.77856445 135.27661133 C76.09933647 135.65176628 76.09933647 135.65176628 74.38618469 136.03450012 C69.15784001 136.52742471 65.82385459 134.24409112 61.6875 131.3125 C59.89209019 130.17248572 58.09100923 129.04136714 56.28515625 127.91796875 C55.3430127 127.32290527 54.40086914 126.7278418 53.43017578 126.11474609 C-11.06530048 87.27434752 -88.22848987 81.61058413 -161.5625 82.3125 C-163.90542028 59.63543469 -163.90542028 59.63543469 -160.38037109 53.13134766 C-157.14941125 49.58380962 -153.08415194 47.49709264 -148.80371094 45.43408203 C-145.73269864 43.89723775 -142.91555228 42.03596329 -140.03588867 40.17138672 C-98.24010445 13.45182421 -49.49770371 -0.20408542 0 0 Z " fill="#1E1E1E" transform="translate(161.5625,288.6875)"/>
<path d="M0 0 C0.8583696 -0.00946152 1.7167392 -0.01892303 2.60112 -0.02867126 C3.96947746 -0.03526512 3.96947746 -0.03526512 5.36547852 -0.04199219 C6.33439529 -0.0490065 7.30331207 -0.05602081 8.30158997 -0.06324768 C11.44923531 -0.08079462 14.59669216 -0.0871094 17.74438477 -0.08886719 C19.35947937 -0.0898793 19.35947937 -0.0898793 21.00720215 -0.09091187 C71.58468556 -0.04063697 125.01016935 7.32307538 170.30688477 31.16113281 C169.30688477 33.16113281 169.30688477 33.16113281 167.63746071 33.78420448 C166.90685118 33.96068708 166.17624165 34.13716969 165.42349243 34.31900024 C164.58510708 34.52577739 163.74672173 34.73255453 162.88293076 34.94559765 C161.95371937 35.1657721 161.02450798 35.38594656 160.06713867 35.61279297 C158.60256414 35.97012874 158.60256414 35.97012874 157.10840225 36.33468342 C153.8352859 37.13111958 150.55942757 37.9156297 147.28344727 38.70019531 C144.97615888 39.25903005 142.66904316 39.81857808 140.36209106 40.37879944 C134.16811772 41.88068503 127.97169666 43.37222757 121.77470398 44.86159897 C115.40293246 46.39456685 109.03327353 47.93626392 102.66333008 49.47680664 C90.15096117 52.50107611 77.63580981 55.51368738 65.11975098 58.52264404 C58.92139365 60.0129182 52.72383507 61.50648466 46.52661133 63.00146484 C37.74178919 65.12043133 28.95570284 67.23406784 20.16820526 69.34191132 C18.05715049 69.84856904 15.94631342 70.35612575 13.83551025 70.86383057 C10.0092975 71.78369763 6.18166727 72.69756091 2.35375977 73.61035156 C1.25605255 73.87461441 0.15834534 74.13887726 -0.97262573 74.41114807 C-2.4531694 74.76245033 -2.4531694 74.76245033 -3.96362305 75.12084961 C-4.81241028 75.32365036 -5.66119751 75.52645111 -6.53570557 75.73539734 C-8.69311523 76.16113281 -8.69311523 76.16113281 -11.69311523 76.16113281 C-11.69311523 51.41113281 -11.69311523 26.66113281 -11.69311523 1.16113281 C-3.81112653 0.03513443 -3.81112653 0.03513443 0 0 Z " fill="#1E1E1E" transform="translate(11.693115234375,404.8388671875)"/>
<path d="M0 0 C379.5 0 759 0 1150 0 C1150 0.99 1150 1.98 1150 3 C770.5 3 391 3 0 3 C0 2.01 0 1.02 0 0 Z " fill="#1E1E1E" transform="translate(0,0)"/>
<path d="M0 0 C2.701875 -0.0825 5.40375 -0.165 8.1875 -0.25 C9.02949951 -0.28641602 9.87149902 -0.32283203 10.73901367 -0.36035156 C14.67603679 -0.41837972 16.56872297 -0.27286024 19.98828125 1.890625 C23.15953405 5.21582211 23.23556818 7.45848169 23.14453125 12.03515625 C22.95683821 14.58676703 22.63085543 15.99849561 21 18 C15.96897797 21.43581992 11.87440983 21.26701863 6 21 C6 24.3 6 27.6 6 31 C4.02 31 2.04 31 0 31 C0 20.77 0 10.54 0 0 Z " fill="#F2F2F2" transform="translate(941,24)"/>
<path d="M0 0 C0.94101562 0.34933594 1.88203125 0.69867188 2.8515625 1.05859375 C4.10927474 1.51850345 5.36709293 1.97812347 6.625 2.4375 C8.46964844 3.11619141 8.46964844 3.11619141 10.3515625 3.80859375 C20.73010577 7.19773261 31.54192501 6.83608813 42 4 C42.77449099 6.99469848 43.28821759 8.98187241 43 12 C39.40349556 17.3887824 33.10166871 19.70763267 27 21 C19.91579233 21.89958193 14.89860372 19.98994983 9 16 C4.9959761 12.34254907 1.37848445 8.36077285 0 3 C0 2.01 0 1.02 0 0 Z " fill="#F9F9F9" transform="translate(881,41)"/>
<path d="M0 0 C3.20525705 3.02718722 5.93038795 6.37057638 8.25 10.125 C8.25 10.785 8.25 11.445 8.25 12.125 C-3.28405328 17.4484092 -14.09887934 15.34253641 -25.75 11.125 C-27.76633461 10.15835904 -29.77197612 9.16779506 -31.75 8.125 C-31.75 7.465 -31.75 6.805 -31.75 6.125 C-26.19556619 4.63089152 -20.63641405 3.15865391 -15.06640625 1.72363281 C-13.18792487 1.23817367 -11.31225912 0.74182849 -9.4375 0.2421875 C-5.82516912 -0.62785561 -3.57653028 -1.13798691 0 0 Z " fill="#F4F4F4" transform="translate(912.75,29.875)"/>
<path d="M0 0 C2.87305972 1.40460697 4.74510999 2.74510999 7 5 C7.22705078 7.06298828 7.22705078 7.06298828 7.1953125 9.5703125 C7.18886719 10.46621094 7.18242188 11.36210938 7.17578125 12.28515625 C7.15902344 13.22230469 7.14226563 14.15945312 7.125 15.125 C7.11597656 16.06988281 7.10695313 17.01476562 7.09765625 17.98828125 C7.07404522 20.32577292 7.04111516 22.66276123 7 25 C5.02 25 3.04 25 1 25 C0.67 24.34 0.34 23.68 0 23 C-0.99 23.66 -1.98 24.32 -3 25 C-5.875 25.4375 -5.875 25.4375 -9 25 C-12.04569423 22.68262395 -13.73181298 21.22174087 -14.5625 17.4375 C-13.76864975 13.99748227 -12.93246369 13.02479636 -10 11 C-6.69894179 10.08418918 -3.38814748 9.4914107 0 9 C0 8.01 0 7.02 0 6 C-1.99954746 5.95745644 -4.00041636 5.95919217 -6 6 C-6.33 6.33 -6.66 6.66 -7 7 C-8.99958364 7.04080783 -11.00045254 7.04254356 -13 7 C-10.36182511 0.62441069 -6.75474203 -0.71102548 0 0 Z " fill="#E9E9E9" transform="translate(993,31)"/>
<path d="M0 0 C3.11141288 1.6437653 5.28893717 3.03036886 7.375 5.875 C8 8 8 8 8 14 C2.39 14 -3.22 14 -9 14 C-8.01 15.65 -7.02 17.3 -6 19 C-2.41571853 19.50031206 -2.41571853 19.50031206 1 19 C1.33 18.67 1.66 18.34 2 18 C3.66617115 17.95936168 5.33388095 17.957279 7 18 C6.875 19.8125 6.875 19.8125 6 22 C1.6677742 24.88815053 -1.84667545 25.73618922 -7 25 C-10.47123247 22.96862853 -12.70220109 20.89339674 -14 17 C-14.4161764 12.72618854 -14.47646722 9.09587461 -12.75 5.125 C-8.85080886 0.3902679 -6.26215353 -0.75577715 0 0 Z " fill="#EFEFEF" transform="translate(1045,31)"/>
<path d="M0 0 C2.734375 1.38671875 2.734375 1.38671875 5 4 C5.61844463 7.4347463 5.47070137 10.77443754 5.3125 14.25 C5.28994141 15.18585937 5.26738281 16.12171875 5.24414062 17.0859375 C5.18530595 19.39225674 5.10317146 21.69530838 5 24 C2.66666667 24 0.33333333 24 -2 24 C-2.66 24.33 -3.32 24.66 -4 25 C-7.73306042 25.41478449 -9.5735406 25.24104227 -12.875 23.375 C-15 21 -15 21 -15.5625 18 C-15 15 -15 15 -13.625 12.75 C-9.72574462 10.15049642 -5.58354293 9.66478867 -1 9 C-1 8.01 -1 7.02 -1 6 C-2.99954746 5.95745644 -5.00041636 5.95919217 -7 6 C-7.33 6.33 -7.66 6.66 -8 7 C-9.99958364 7.04080783 -12.00045254 7.04254356 -14 7 C-11.39726025 0.7100456 -6.74920166 -1.59617991 0 0 Z " fill="#F1F1F1" transform="translate(1088,31)"/>
<path d="M0 0 C1.98 0 3.96 0 6 0 C6.33 0.66 6.66 1.32 7 2 C7.99 1.34 8.98 0.68 10 0 C13.63146082 0.13205312 16.14251401 0.4384605 19.20703125 2.4453125 C21.95966276 6.36736263 21.42911662 10.08607888 21.25 14.75 C21.23195313 15.63816406 21.21390625 16.52632812 21.1953125 17.44140625 C21.14827374 19.62870848 21.08257009 21.81379816 21 24 C19.02 24 17.04 24 15 24 C14.93941406 22.78441406 14.87882813 21.56882812 14.81640625 20.31640625 C14.73201668 18.73175772 14.6473679 17.14712298 14.5625 15.5625 C14.52318359 14.76005859 14.48386719 13.95761719 14.44335938 13.13085938 C14.5945704 9.24760439 14.5945704 9.24760439 13 6 C10.5 5.83333333 10.5 5.83333333 8 6 C5.88074396 8.11925604 6.58168983 12.6196093 6.4375 15.5625 C6.39431641 16.36880859 6.35113281 17.17511719 6.30664062 18.00585938 C6.20024738 20.00368805 6.09959112 22.0018207 6 24 C4.02 24 2.04 24 0 24 C0 16.08 0 8.16 0 0 Z " fill="#EBEBEB" transform="translate(1005,31)"/>
<path d="M0 0 C1.65 0 3.3 0 5 0 C7 5 9 10 11 15 C11.27714844 14.00097656 11.55429688 13.00195312 11.83984375 11.97265625 C12.20555549 10.66922209 12.57145038 9.36583931 12.9375 8.0625 C13.11990234 7.40314453 13.30230469 6.74378906 13.49023438 6.06445312 C14.88671875 1.11328125 14.88671875 1.11328125 16 0 C17.99958364 -0.04080783 20.00045254 -0.04254356 22 0 C20.82952763 3.76012815 19.63874456 7.51315995 18.42944336 11.26098633 C17.82186911 13.15824332 17.23013916 15.06055075 16.63867188 16.96289062 C16.24873047 18.16494141 15.85878906 19.36699219 15.45703125 20.60546875 C14.9307312 22.26292114 14.9307312 22.26292114 14.39379883 23.95385742 C12.77139144 27.49962322 11.00742241 29.53344208 8 32 C4.1875 32.3125 4.1875 32.3125 1 32 C1.25 30.125 1.25 30.125 2 28 C4.046875 26.8671875 4.046875 26.8671875 6 26 C5.62685743 18.78591032 3.62977299 12.72558528 1.05859375 6.0390625 C0 3 0 3 0 0 Z " fill="#F3F3F3" transform="translate(1116,32)"/>
<path d="M0 0 C2.94870201 1.57611199 5.40813497 3.1036474 7.5625 5.6875 C7.5625 6.3475 7.5625 7.0075 7.5625 7.6875 C-3.60392136 11.60150336 -3.60392136 11.60150336 -9.3125 8.9375 C-10.10140625 8.545625 -10.8903125 8.15375 -11.703125 7.75 C-17.0132532 5.6866359 -22.79611317 5.85007599 -28.4375 5.6875 C-20.6026783 -2.67432764 -10.41861878 -4.99730261 0 0 Z " fill="#F2F2F2" transform="translate(915.4375,15.3125)"/>
<path d="M0 0 C1.98 0 3.96 0 6 0 C6 1.98 6 3.96 6 6 C7.32 6 8.64 6 10 6 C10 7.32 10 8.64 10 10 C8.68 10 7.36 10 6 10 C6 14.95 6 19.9 6 25 C7.32 25 8.64 25 10 25 C10.5625 26.9375 10.5625 26.9375 11 29 C10 30 10 30 7.1875 30.3125 C4 30 4 30 1.81640625 28.49609375 C-0.71581903 25.01632611 -0.4393898 21.87287035 -0.25 17.75 C-0.23195313 17.00492188 -0.21390625 16.25984375 -0.1953125 15.4921875 C-0.14835649 13.66090299 -0.07661652 11.83028351 0 10 C-0.99 10 -1.98 10 -3 10 C-3 8.68 -3 7.36 -3 6 C-2.01 6 -1.02 6 0 6 C0 4.02 0 2.04 0 0 Z " fill="#F1F1F1" transform="translate(1059,26)"/>
<path d="M0 0 C1.65 0 3.3 0 5 0 C5.33 0.66 5.66 1.32 6 2 C6.66 1.34 7.32 0.68 8 0 C10.625 -0.125 10.625 -0.125 13 0 C13 1.32 13 2.64 13 4 C11.02 4.66 9.04 5.32 7 6 C6.67 11.94 6.34 17.88 6 24 C4.02 24 2.04 24 0 24 C0 16.08 0 8.16 0 0 Z " fill="#F0F0F0" transform="translate(1099,32)"/>
<path d="M0 0 C1.65 0 3.3 0 5 0 C5 10.23 5 20.46 5 31 C3.35 31 1.7 31 0 31 C0 20.77 0 10.54 0 0 Z " fill="#FFFFFF" transform="translate(969,24)"/>
<path d="M0 0 C2.5419589 -0.05434116 5.08273682 -0.0938339 7.625 -0.125 C8.33785156 -0.14175781 9.05070313 -0.15851562 9.78515625 -0.17578125 C14.2612164 -0.21684602 17.77949278 0.30913433 22 2 C21.67 2.66 21.34 3.32 21 4 C18.89868164 4.68603516 18.89868164 4.68603516 16.16015625 5.2890625 C15.17982422 5.50820313 14.19949219 5.72734375 13.18945312 5.953125 C12.15755859 6.17484375 11.12566406 6.3965625 10.0625 6.625 C8.52045898 6.96917969 8.52045898 6.96917969 6.94726562 7.3203125 C-0.66631789 9 -0.66631789 9 -3 9 C-2.43945339 5.63672037 -1.58158962 3.00887781 0 0 Z " fill="#EFEFEF" transform="translate(884,24)"/>
<path d="M0 0 C2.22085338 3.97415868 2.17563129 7.5214021 2 12 C0.35 12.66 -1.3 13.32 -3 14 C-4.12629875 12.56351736 -5.2509899 11.12577415 -6.375 9.6875 C-7.00148438 8.88699219 -7.62796875 8.08648437 -8.2734375 7.26171875 C-9.57756718 5.55336788 -10.80781817 3.78827274 -12 2 C-10.56656 1.46809459 -9.12804633 0.94984742 -7.6875 0.4375 C-6.48673828 0.00244141 -6.48673828 0.00244141 -5.26171875 -0.44140625 C-3 -1 -3 -1 0 0 Z " fill="#F2F2F2" transform="translate(927,26)"/>
<path d="M0 0 C6.8359375 -0.1953125 6.8359375 -0.1953125 9 0 C11 2 11 2 11.3125 4.9375 C11 8 11 8 10 9.875 C6.74686316 11.70488947 3.68609891 11.18128355 0 11 C0 7.37 0 3.74 0 0 Z " fill="#151515" transform="translate(947,29)"/>
<path d="M0 0 C6.27 1.98 12.54 3.96 19 6 C19 6.33 19 6.66 19 7 C12.73 7 6.46 7 0 7 C0 4.69 0 2.38 0 0 Z " fill="#1E1E1E" transform="translate(0,631)"/>
<path d="M0 0 C0.75 1.75 0.75 1.75 1 4 C-0.625 6.3125 -0.625 6.3125 -3 8 C-5.75 7.75 -5.75 7.75 -8 7 C-8.33 5.68 -8.66 4.36 -9 3 C-5.81237635 0.87491756 -3.73487777 0.4979837 0 0 Z " fill="#272727" transform="translate(1087,44)"/>
<path d="M0 0 C0.36075949 4.44936709 0.36075949 4.44936709 -1.1875 6.8125 C-3.55982525 8.36678206 -5.22041345 8.22537188 -8 8 C-8.625 5.625 -8.625 5.625 -9 3 C-6.31795079 0.31795079 -3.73391546 0 0 0 Z " fill="#242424" transform="translate(994,44)"/>
<path d="M0 0 C3.0625 0.1875 3.0625 0.1875 5.0625 2.1875 C5.0625 3.1775 5.0625 4.1675 5.0625 5.1875 C1.7625 5.1875 -1.5375 5.1875 -4.9375 5.1875 C-3.69966216 0.23614865 -3.69966216 0.23614865 0 0 Z " fill="#151515" transform="translate(1041.9375,35.8125)"/>
<path d="M0 0 C0 1.32 0 2.64 0 4 C-3.63 4 -7.26 4 -11 4 C-7.63661956 0.63661956 -4.71164284 0 0 0 Z " fill="#1D1D1D" transform="translate(354,634)"/>
</svg>
